<svg width="231" height="54" viewBox="0 0 231 54" fill="none" xmlns="http://www.w3.org/2000/svg">
<path d="M5.4944 53.9999C3.92813 53.9999 2.6214 53.5162 1.5742 52.5488C0.527 51.5814 0.00226667 50.3742 0 48.9272V21.7451C0 21.2991 0.162066 20.9253 0.4862 20.6238C0.810333 20.3222 1.21493 20.1725 1.7 20.1746C2.18507 20.1767 2.58967 20.3264 2.9138 20.6238C3.23793 20.9211 3.4 21.2949 3.4 21.7451V48.9272C3.4 49.4088 3.6176 49.8517 4.0528 50.2559C4.488 50.66 4.9674 50.861 5.491 50.8589H54.4C54.8851 50.8589 55.2897 51.0097 55.6138 51.3112C55.9379 51.6128 56.1 51.9855 56.1 52.4294C56.1 52.8733 55.9379 53.2471 55.6138 53.5508C55.2897 53.8544 54.8851 54.0041 54.4 53.9999H5.4944ZM15.6944 44.5769C14.1281 44.5769 12.8214 44.0932 11.7742 43.1258C10.727 42.1584 10.2023 40.9512 10.2 39.5042V12.564C10.2 11.8353 10.4607 11.2301 10.982 10.7485C11.5033 10.2669 12.1584 10.026 12.9472 10.026H28.2472V5.07271C28.2472 3.62785 28.7708 2.42066 29.818 1.45114C30.8652 0.481625 32.1719 -0.00208722 33.7382 6.76938e-06H44.4618C46.0258 6.76938e-06 47.3325 0.483719 48.382 1.45114C49.4315 2.41857 49.9551 3.62576 49.9528 5.07271V10.026H65.2528C66.0416 10.026 66.6967 10.2669 67.218 10.7485C67.7393 11.2301 68 11.8353 68 12.564V39.5042C68 40.9491 67.4764 42.1563 66.4292 43.1258C65.382 44.0953 64.0753 44.579 62.509 44.5769H15.6944ZM31.6472 10.026H46.5528V5.07271C46.5528 4.59109 46.3352 4.14821 45.9 3.74407C45.4648 3.33993 44.9854 3.1389 44.4618 3.141H33.7382C33.2169 3.141 32.7375 3.34202 32.3 3.74407C31.8625 4.14611 31.6449 4.58899 31.6472 5.07271V10.026ZM34 33.3259C34 33.8724 34.2539 34.2672 34.7616 34.5101C35.2693 34.753 35.7635 34.7362 36.244 34.4598L45.9578 28.7903C46.4247 28.516 46.6582 28.1307 46.6582 27.6344C46.6582 27.1382 46.4247 26.7539 45.9578 26.4817L36.244 20.8091C35.7635 20.5369 35.2693 20.5211 34.7616 20.762C34.2539 21.0028 34 21.3975 34 21.9461V33.3259Z" fill="#42D094"/>
<path d="M88.934 31.574H82.818L81.806 34.5H78.572L84.094 19.122H87.68L93.202 34.5H89.946L88.934 31.574ZM88.098 29.11L85.876 22.686L83.654 29.11H88.098ZM98.346 18.22V34.5H95.266V18.22H98.346ZM104.469 18.22V34.5H101.389V18.22H104.469ZM110.592 19.144V34.5H107.512V19.144H110.592ZM120.389 22.136C121.841 22.136 123.015 22.598 123.909 23.522C124.804 24.4313 125.251 25.7073 125.251 27.35V34.5H122.171V27.768C122.171 26.8 121.929 26.0593 121.445 25.546C120.961 25.018 120.301 24.754 119.465 24.754C118.615 24.754 117.94 25.018 117.441 25.546C116.957 26.0593 116.715 26.8 116.715 27.768V34.5H113.635V22.312H116.715V23.83C117.126 23.302 117.647 22.8913 118.277 22.598C118.923 22.29 119.627 22.136 120.389 22.136Z" fill="#FE9345"/>
<path d="M135.308 34.654C133.871 34.654 132.551 34.3167 131.348 33.642C130.145 32.9673 129.192 32.036 128.488 30.848C127.784 29.6453 127.432 28.2887 127.432 26.778C127.432 25.282 127.784 23.94 128.488 22.752C129.192 21.5493 130.145 20.6107 131.348 19.936C132.551 19.2613 133.871 18.924 135.308 18.924C136.76 18.924 138.08 19.2613 139.268 19.936C140.471 20.6107 141.417 21.5493 142.106 22.752C142.81 23.94 143.162 25.282 143.162 26.778C143.162 28.2887 142.81 29.6453 142.106 30.848C141.417 32.036 140.471 32.9673 139.268 33.642C138.065 34.3167 136.745 34.654 135.308 34.654ZM135.308 31.904C136.232 31.904 137.046 31.6987 137.75 31.288C138.454 30.8627 139.004 30.2613 139.4 29.484C139.796 28.7067 139.994 27.8047 139.994 26.778C139.994 25.7513 139.796 24.8567 139.4 24.094C139.004 23.3167 138.454 22.7227 137.75 22.312C137.046 21.9013 136.232 21.696 135.308 21.696C134.384 21.696 133.563 21.9013 132.844 22.312C132.14 22.7227 131.59 23.3167 131.194 24.094C130.798 24.8567 130.6 25.7513 130.6 26.778C130.6 27.8047 130.798 28.7067 131.194 29.484C131.59 30.2613 132.14 30.8627 132.844 31.288C133.563 31.6987 134.384 31.904 135.308 31.904ZM152.208 22.136C153.66 22.136 154.833 22.598 155.728 23.522C156.622 24.4313 157.07 25.7073 157.07 27.35V34.5H153.99V27.768C153.99 26.8 153.748 26.0593 153.264 25.546C152.78 25.018 152.12 24.754 151.284 24.754C150.433 24.754 149.758 25.018 149.26 25.546C148.776 26.0593 148.534 26.8 148.534 27.768V34.5H145.454V22.312H148.534V23.83C148.944 23.302 149.465 22.8913 150.096 22.598C150.741 22.29 151.445 22.136 152.208 22.136ZM171.328 28.142C171.328 28.582 171.299 28.978 171.24 29.33H162.33C162.404 30.21 162.712 30.8993 163.254 31.398C163.797 31.8967 164.464 32.146 165.256 32.146C166.4 32.146 167.214 31.6547 167.698 30.672H171.02C170.668 31.8453 169.994 32.8133 168.996 33.576C167.999 34.324 166.774 34.698 165.322 34.698C164.149 34.698 163.093 34.4413 162.154 33.928C161.23 33.4 160.504 32.6593 159.976 31.706C159.463 30.7527 159.206 29.6527 159.206 28.406C159.206 27.1447 159.463 26.0373 159.976 25.084C160.49 24.1307 161.208 23.3973 162.132 22.884C163.056 22.3707 164.12 22.114 165.322 22.114C166.481 22.114 167.515 22.3633 168.424 22.862C169.348 23.3607 170.06 24.072 170.558 24.996C171.072 25.9053 171.328 26.954 171.328 28.142ZM168.138 27.262C168.124 26.47 167.838 25.8393 167.28 25.37C166.723 24.886 166.041 24.644 165.234 24.644C164.472 24.644 163.826 24.8787 163.298 25.348C162.785 25.8027 162.47 26.4407 162.352 27.262H168.138ZM178.879 34.654C177.808 34.654 176.84 34.4707 175.975 34.104C175.124 33.7373 174.449 33.2093 173.951 32.52C173.452 31.8307 173.195 31.0167 173.181 30.078H176.481C176.525 30.7087 176.745 31.2073 177.141 31.574C177.551 31.9407 178.109 32.124 178.813 32.124C179.531 32.124 180.096 31.9553 180.507 31.618C180.917 31.266 181.123 30.8113 181.123 30.254C181.123 29.7993 180.983 29.4253 180.705 29.132C180.426 28.8387 180.074 28.6113 179.649 28.45C179.238 28.274 178.666 28.0833 177.933 27.878C176.935 27.5847 176.121 27.2987 175.491 27.02C174.875 26.7267 174.339 26.294 173.885 25.722C173.445 25.1353 173.225 24.358 173.225 23.39C173.225 22.4807 173.452 21.6887 173.907 21.014C174.361 20.3393 174.999 19.826 175.821 19.474C176.642 19.1073 177.581 18.924 178.637 18.924C180.221 18.924 181.504 19.3127 182.487 20.09C183.484 20.8527 184.034 21.9233 184.137 23.302H180.749C180.719 22.774 180.492 22.3413 180.067 22.004C179.656 21.652 179.106 21.476 178.417 21.476C177.815 21.476 177.331 21.63 176.965 21.938C176.613 22.246 176.437 22.6933 176.437 23.28C176.437 23.6907 176.569 24.0353 176.833 24.314C177.111 24.578 177.449 24.798 177.845 24.974C178.255 25.1353 178.827 25.326 179.561 25.546C180.558 25.8393 181.372 26.1327 182.003 26.426C182.633 26.7193 183.176 27.1593 183.631 27.746C184.085 28.3327 184.313 29.1027 184.313 30.056C184.313 30.8773 184.1 31.64 183.675 32.344C183.249 33.048 182.626 33.6127 181.805 34.038C180.983 34.4487 180.008 34.654 178.879 34.654ZM190.569 24.842V30.738C190.569 31.1487 190.664 31.4493 190.855 31.64C191.06 31.816 191.398 31.904 191.867 31.904H193.297V34.5H191.361C188.765 34.5 187.467 33.2387 187.467 30.716V24.842H186.015V22.312H187.467V19.298H190.569V22.312H193.297V24.842H190.569ZM200.924 34.698C199.751 34.698 198.695 34.4413 197.756 33.928C196.817 33.4 196.077 32.6593 195.534 31.706C195.006 30.7527 194.742 29.6527 194.742 28.406C194.742 27.1593 195.013 26.0593 195.556 25.106C196.113 24.1527 196.869 23.4193 197.822 22.906C198.775 22.378 199.839 22.114 201.012 22.114C202.185 22.114 203.249 22.378 204.202 22.906C205.155 23.4193 205.903 24.1527 206.446 25.106C207.003 26.0593 207.282 27.1593 207.282 28.406C207.282 29.6527 206.996 30.7527 206.424 31.706C205.867 32.6593 205.104 33.4 204.136 33.928C203.183 34.4413 202.112 34.698 200.924 34.698ZM200.924 32.014C201.481 32.014 202.002 31.882 202.486 31.618C202.985 31.3393 203.381 30.9287 203.674 30.386C203.967 29.8433 204.114 29.1833 204.114 28.406C204.114 27.2473 203.806 26.36 203.19 25.744C202.589 25.1133 201.848 24.798 200.968 24.798C200.088 24.798 199.347 25.1133 198.746 25.744C198.159 26.36 197.866 27.2473 197.866 28.406C197.866 29.5647 198.152 30.4593 198.724 31.09C199.311 31.706 200.044 32.014 200.924 32.014ZM212.621 24.204C213.017 23.5587 213.531 23.0527 214.161 22.686C214.807 22.3193 215.54 22.136 216.361 22.136V25.37H215.547C214.579 25.37 213.846 25.5973 213.347 26.052C212.863 26.5067 212.621 27.2987 212.621 28.428V34.5H209.541V22.312H212.621V24.204ZM229.766 28.142C229.766 28.582 229.737 28.978 229.678 29.33H220.768C220.841 30.21 221.149 30.8993 221.692 31.398C222.235 31.8967 222.902 32.146 223.694 32.146C224.838 32.146 225.652 31.6547 226.136 30.672H229.458C229.106 31.8453 228.431 32.8133 227.434 33.576C226.437 34.324 225.212 34.698 223.76 34.698C222.587 34.698 221.531 34.4413 220.592 33.928C219.668 33.4 218.942 32.6593 218.414 31.706C217.901 30.7527 217.644 29.6527 217.644 28.406C217.644 27.1447 217.901 26.0373 218.414 25.084C218.927 24.1307 219.646 23.3973 220.57 22.884C221.494 22.3707 222.557 22.114 223.76 22.114C224.919 22.114 225.953 22.3633 226.862 22.862C227.786 23.3607 228.497 24.072 228.996 24.996C229.509 25.9053 229.766 26.954 229.766 28.142ZM226.576 27.262C226.561 26.47 226.275 25.8393 225.718 25.37C225.161 24.886 224.479 24.644 223.672 24.644C222.909 24.644 222.264 24.8787 221.736 25.348C221.223 25.8027 220.907 26.4407 220.79 27.262H226.576Z" fill="#2F2F2F"/>
</svg>
