<svg width="413" height="213" viewBox="0 0 413 213" fill="none" xmlns="http://www.w3.org/2000/svg">
<g clip-path="url(#clip0_3374_9529)">
<path opacity="0.42" d="M58.7784 184.448C79.4919 184.448 96.2834 180.989 96.2834 176.722C96.2834 172.455 79.4919 168.996 58.7784 168.996C38.065 168.996 21.2734 172.455 21.2734 176.722C21.2734 180.989 38.065 184.448 58.7784 184.448Z" fill="#B7B7B7"/>
<path opacity="0.42" d="M405.917 172.753C405.917 177.02 389.125 180.479 368.412 180.479C347.698 180.479 330.906 177.02 330.906 172.753C330.906 168.486 347.698 165.027 368.412 165.027C389.125 165.027 405.917 168.486 405.917 172.753Z" fill="#B7B7B7"/>
<path d="M144.679 157V139.477H112.354V124.402L141.251 80.812H159.699V124.457H165.631V139.477H159.699V157H144.679ZM129.714 124.402L144.679 124.457L144.625 101.111L129.714 124.402ZM201.991 158.415C197.601 158.415 193.592 157.399 189.964 155.367C186.336 153.299 183.18 150.451 180.495 146.823C177.847 143.195 175.797 139.005 174.346 134.252C172.894 129.463 172.169 124.348 172.169 118.906C172.169 113.464 172.894 108.367 174.346 103.614C175.797 98.825 177.847 94.6165 180.495 90.9885C183.18 87.3605 186.336 84.5307 189.964 82.499C193.592 80.4311 197.601 79.3971 201.991 79.3971C206.381 79.3971 210.39 80.4311 214.018 82.499C217.646 84.5307 220.766 87.3605 223.378 90.9885C226.026 94.6165 228.076 98.825 229.528 103.614C230.979 108.367 231.704 113.464 231.704 118.906C231.704 124.348 230.979 129.463 229.528 134.252C228.076 139.005 226.026 143.195 223.378 146.823C220.766 150.451 217.646 153.299 214.018 155.367C210.39 157.399 206.381 158.415 201.991 158.415ZM201.991 143.395C205.583 143.395 208.54 142.234 210.861 139.912C213.183 137.59 214.889 134.561 215.977 130.824C217.102 127.087 217.664 123.114 217.664 118.906C217.664 114.444 217.065 110.362 215.868 106.661C214.707 102.961 212.966 100.004 210.644 97.791C208.322 95.5417 205.438 94.417 201.991 94.417C199.27 94.417 196.912 95.0882 194.916 96.4305C192.957 97.7729 191.325 99.605 190.019 101.927C188.749 104.249 187.787 106.879 187.134 109.818C186.518 112.72 186.209 115.75 186.209 118.906C186.209 123.114 186.772 127.087 187.896 130.824C189.057 134.525 190.799 137.554 193.121 139.912C195.479 142.234 198.436 143.395 201.991 143.395ZM271.695 157V139.477H239.369V124.402L268.266 80.812H286.714V124.457H292.646V139.477H286.714V157H271.695ZM256.729 124.402L271.695 124.457L271.64 101.111L256.729 124.402Z" fill="#C66D1E"/>
<path d="M172.389 48.1725C171.235 48.1725 170.15 47.9449 169.133 47.4897C168.117 47.0263 167.223 46.3882 166.451 45.5752C165.679 44.7623 165.073 43.8234 164.634 42.7585C164.195 41.6854 163.976 40.5392 163.976 39.3198C163.976 38.1005 164.195 36.9583 164.634 35.8934C165.073 34.8203 165.679 33.8774 166.451 33.0644C167.223 32.2515 168.117 31.6175 169.133 31.1622C170.15 30.6989 171.235 30.4672 172.389 30.4672C173.552 30.4672 174.641 30.6989 175.657 31.1622C176.673 31.6175 177.567 32.2515 178.34 33.0644C179.112 33.8774 179.714 34.8203 180.144 35.8934C180.583 36.9583 180.803 38.1005 180.803 39.3198C180.803 40.5392 180.583 41.6854 180.144 42.7585C179.714 43.8234 179.112 44.7623 178.34 45.5752C177.567 46.3882 176.673 47.0263 175.657 47.4897C174.641 47.9449 173.552 48.1725 172.389 48.1725ZM172.389 45.6362C173.202 45.6362 173.962 45.4696 174.669 45.1363C175.377 44.803 175.999 44.3477 176.535 43.7706C177.08 43.1853 177.502 42.5146 177.803 41.7586C178.112 40.9945 178.267 40.1815 178.267 39.3198C178.267 38.4582 178.112 37.6452 177.803 36.8811C177.502 36.117 177.08 35.4463 176.535 34.8691C175.999 34.2838 175.377 33.8286 174.669 33.5034C173.962 33.1701 173.202 33.0035 172.389 33.0035C171.576 33.0035 170.816 33.1701 170.109 33.5034C169.402 33.8367 168.776 34.296 168.231 34.8813C167.695 35.4585 167.272 36.1291 166.963 36.8933C166.662 37.6493 166.512 38.4582 166.512 39.3198C166.512 40.1897 166.662 41.0066 166.963 41.7708C167.272 42.5268 167.695 43.1975 168.231 43.7828C168.776 44.3599 169.402 44.8152 170.109 45.1485C170.816 45.4736 171.576 45.6362 172.389 45.6362ZM190.989 48.1725C189.835 48.1725 188.75 47.9449 187.734 47.4897C186.718 47.0263 185.823 46.3882 185.051 45.5752C184.279 44.7623 183.673 43.8234 183.234 42.7585C182.795 41.6854 182.576 40.5392 182.576 39.3198C182.576 38.1005 182.795 36.9583 183.234 35.8934C183.673 34.8203 184.279 33.8774 185.051 33.0644C185.823 32.2515 186.718 31.6175 187.734 31.1622C188.75 30.6989 189.835 30.4672 190.989 30.4672C192.152 30.4672 193.241 30.6989 194.257 31.1622C195.273 31.6175 196.168 32.2515 196.94 33.0644C197.712 33.8774 198.314 34.8203 198.745 35.8934C199.184 36.9583 199.403 38.1005 199.403 39.3198C199.403 40.5392 199.184 41.6854 198.745 42.7585C198.314 43.8234 197.712 44.7623 196.94 45.5752C196.168 46.3882 195.273 47.0263 194.257 47.4897C193.241 47.9449 192.152 48.1725 190.989 48.1725ZM190.989 45.6362C191.802 45.6362 192.562 45.4696 193.27 45.1363C193.977 44.803 194.599 44.3477 195.135 43.7706C195.68 43.1853 196.103 42.5146 196.403 41.7586C196.712 40.9945 196.867 40.1815 196.867 39.3198C196.867 38.4582 196.712 37.6452 196.403 36.8811C196.103 36.117 195.68 35.4463 195.135 34.8691C194.599 34.2838 193.977 33.8286 193.27 33.5034C192.562 33.1701 191.802 33.0035 190.989 33.0035C190.177 33.0035 189.416 33.1701 188.709 33.5034C188.002 33.8367 187.376 34.296 186.831 34.8813C186.295 35.4585 185.872 36.1291 185.563 36.8933C185.262 37.6493 185.112 38.4582 185.112 39.3198C185.112 40.1897 185.262 41.0066 185.563 41.7708C185.872 42.5268 186.295 43.1975 186.831 43.7828C187.376 44.3599 188.002 44.8152 188.709 45.1485C189.416 45.4736 190.177 45.6362 190.989 45.6362ZM201.711 47.8555V30.7842H207.589C208.507 30.7842 209.337 31.0118 210.076 31.4671C210.824 31.9223 211.418 32.5361 211.857 33.3083C212.304 34.0806 212.527 34.9342 212.527 35.869C212.527 36.8201 212.3 37.6818 211.844 38.4541C211.397 39.2182 210.8 39.8279 210.052 40.2831C209.304 40.7384 208.483 40.966 207.589 40.966H204.248V47.8555H201.711ZM204.248 38.4297H207.333C207.82 38.4297 208.263 38.3078 208.662 38.0639C209.068 37.82 209.389 37.4948 209.625 37.0884C209.869 36.6819 209.991 36.2226 209.991 35.7105C209.991 35.1984 209.869 34.7391 209.625 34.3326C209.389 33.918 209.068 33.5928 208.662 33.3571C208.263 33.1132 207.82 32.9913 207.333 32.9913H204.248V38.4297ZM221.061 48.1725C220.127 48.1725 219.228 48.0262 218.367 47.7335C217.505 47.4409 216.753 47.0222 216.111 46.4776C215.469 45.9248 215.009 45.2704 214.733 44.5144L217.111 43.6242C217.249 44.0144 217.513 44.364 217.903 44.6729C218.302 44.9737 218.773 45.2094 219.318 45.3801C219.871 45.5508 220.452 45.6362 221.061 45.6362C221.712 45.6362 222.322 45.5305 222.891 45.3192C223.468 45.1078 223.931 44.8152 224.281 44.4412C224.638 44.0673 224.817 43.6283 224.817 43.1243C224.817 42.604 224.63 42.1772 224.256 41.8439C223.89 41.5107 223.419 41.2465 222.842 41.0514C222.273 40.8563 221.679 40.7099 221.061 40.6124C219.867 40.4173 218.793 40.1328 217.842 39.7588C216.899 39.3849 216.151 38.8605 215.599 38.1858C215.054 37.5111 214.782 36.6332 214.782 35.552C214.782 34.5358 215.07 33.6497 215.647 32.8937C216.233 32.1377 217.001 31.5524 217.952 31.1378C218.911 30.7151 219.948 30.5038 221.061 30.5038C221.98 30.5038 222.866 30.6501 223.72 30.9427C224.581 31.2273 225.337 31.6459 225.988 32.1987C226.646 32.7433 227.118 33.4059 227.402 34.1863L225 35.052C224.862 34.6537 224.598 34.3082 224.207 34.0156C223.817 33.7148 223.346 33.479 222.793 33.3083C222.248 33.1376 221.671 33.0523 221.061 33.0523C220.411 33.0441 219.801 33.1498 219.232 33.3693C218.672 33.5807 218.212 33.8733 217.855 34.2472C217.497 34.6212 217.318 35.0561 217.318 35.552C217.318 36.1617 217.485 36.625 217.818 36.9421C218.151 37.2591 218.598 37.4948 219.159 37.6493C219.728 37.7956 220.362 37.9298 221.061 38.0517C222.183 38.2305 223.22 38.5272 224.171 38.9418C225.13 39.3564 225.898 39.9092 226.476 40.6002C227.061 41.283 227.353 42.1244 227.353 43.1243C227.353 44.1323 227.061 45.0184 226.476 45.7825C225.898 46.5385 225.13 47.1279 224.171 47.5506C223.22 47.9652 222.183 48.1725 221.061 48.1725ZM236.776 48.1725C236.402 48.1725 236.085 48.0424 235.825 47.7823C235.573 47.5222 235.447 47.2051 235.447 46.8312C235.447 46.4654 235.573 46.1524 235.825 45.8923C236.085 45.6321 236.402 45.5021 236.776 45.5021C237.15 45.5021 237.467 45.6321 237.727 45.8923C237.987 46.1524 238.118 46.4654 238.118 46.8312C238.118 47.2051 237.987 47.5222 237.727 47.7823C237.467 48.0424 237.15 48.1725 236.776 48.1725ZM241.897 48.1725C241.523 48.1725 241.206 48.0424 240.946 47.7823C240.693 47.5222 240.567 47.2051 240.567 46.8312C240.567 46.4654 240.693 46.1524 240.946 45.8923C241.206 45.6321 241.523 45.5021 241.897 45.5021C242.271 45.5021 242.588 45.6321 242.848 45.8923C243.108 46.1524 243.238 46.4654 243.238 46.8312C243.238 47.2051 243.108 47.5222 242.848 47.7823C242.588 48.0424 242.271 48.1725 241.897 48.1725ZM247.017 48.1725C246.643 48.1725 246.326 48.0424 246.066 47.7823C245.814 47.5222 245.688 47.2051 245.688 46.8312C245.688 46.4654 245.814 46.1524 246.066 45.8923C246.326 45.6321 246.643 45.5021 247.017 45.5021C247.391 45.5021 247.708 45.6321 247.968 45.8923C248.228 46.1524 248.358 46.4654 248.358 46.8312C248.358 47.2051 248.228 47.5222 247.968 47.7823C247.708 48.0424 247.391 48.1725 247.017 48.1725Z" fill="#1C1C1C" fill-opacity="0.62"/>
<path d="M108.463 203.377V186.306H114.341C115.259 186.306 116.088 186.533 116.828 186.989C117.576 187.444 118.169 188.058 118.608 188.83C119.056 189.602 119.279 190.456 119.279 191.39C119.279 192.342 119.051 193.203 118.596 193.976C118.149 194.74 117.552 195.349 116.804 195.805C116.056 196.26 115.235 196.487 114.341 196.487H111V203.377H108.463ZM111 193.951H114.085C114.572 193.951 115.015 193.829 115.414 193.585C115.82 193.341 116.141 193.016 116.377 192.61C116.621 192.203 116.743 191.744 116.743 191.232C116.743 190.72 116.621 190.261 116.377 189.854C116.141 189.439 115.82 189.114 115.414 188.879C115.015 188.635 114.572 188.513 114.085 188.513H111V193.951ZM124.733 186.306H127.696L133.902 203.377H131.22L130.037 200.133H122.391L121.221 203.377H118.526L124.733 186.306ZM123.33 197.597H129.098L126.208 189.671L123.33 197.597ZM143.075 203.694C141.888 203.694 140.782 203.466 139.758 203.011C138.742 202.548 137.852 201.91 137.088 201.097C136.331 200.276 135.738 199.329 135.307 198.256C134.885 197.183 134.673 196.04 134.673 194.829C134.673 193.553 134.901 192.378 135.356 191.305C135.811 190.232 136.433 189.301 137.222 188.513C138.01 187.716 138.908 187.098 139.916 186.659C140.933 186.22 141.998 186.001 143.111 186.001C144.371 186.001 145.582 186.294 146.745 186.879C147.907 187.464 148.92 188.342 149.781 189.513L147.513 190.744C146.928 190.013 146.245 189.46 145.465 189.086C144.692 188.712 143.9 188.525 143.087 188.525C142.298 188.525 141.55 188.688 140.843 189.013C140.136 189.33 139.51 189.777 138.965 190.354C138.421 190.923 137.99 191.594 137.673 192.366C137.364 193.13 137.209 193.963 137.209 194.866C137.209 195.736 137.36 196.553 137.661 197.317C137.97 198.081 138.392 198.751 138.929 199.329C139.473 199.898 140.099 200.345 140.807 200.67C141.522 200.995 142.286 201.158 143.099 201.158C143.701 201.158 144.278 201.06 144.831 200.865C145.383 200.67 145.895 200.394 146.367 200.036C146.847 199.67 147.265 199.235 147.623 198.731C147.981 198.227 148.265 197.666 148.476 197.048H144.855V194.805H151.452C151.468 196.024 151.257 197.17 150.818 198.243C150.387 199.316 149.785 200.263 149.013 201.085C148.249 201.897 147.359 202.536 146.343 202.999C145.326 203.462 144.237 203.694 143.075 203.694ZM153.761 203.377V186.306H164.357V188.842H156.297V192.963H162.785V195.5H156.297V200.841H164.357V203.377H153.761ZM172.909 203.377V186.306H175.653L183.493 198.792V186.306H186.03V203.377H183.286L175.445 190.891V203.377H172.909ZM196.887 203.694C195.733 203.694 194.647 203.466 193.631 203.011C192.615 202.548 191.721 201.91 190.949 201.097C190.176 200.284 189.571 199.345 189.132 198.28C188.693 197.207 188.473 196.061 188.473 194.841C188.473 193.622 188.693 192.48 189.132 191.415C189.571 190.342 190.176 189.399 190.949 188.586C191.721 187.773 192.615 187.139 193.631 186.684C194.647 186.22 195.733 185.989 196.887 185.989C198.049 185.989 199.139 186.22 200.155 186.684C201.171 187.139 202.065 187.773 202.838 188.586C203.61 189.399 204.211 190.342 204.642 191.415C205.081 192.48 205.301 193.622 205.301 194.841C205.301 196.061 205.081 197.207 204.642 198.28C204.211 199.345 203.61 200.284 202.838 201.097C202.065 201.91 201.171 202.548 200.155 203.011C199.139 203.466 198.049 203.694 196.887 203.694ZM196.887 201.158C197.7 201.158 198.46 200.991 199.167 200.658C199.874 200.324 200.496 199.869 201.033 199.292C201.578 198.707 202 198.036 202.301 197.28C202.61 196.516 202.764 195.703 202.764 194.841C202.764 193.98 202.61 193.167 202.301 192.403C202 191.638 201.578 190.968 201.033 190.391C200.496 189.805 199.874 189.35 199.167 189.025C198.46 188.692 197.7 188.525 196.887 188.525C196.074 188.525 195.314 188.692 194.607 189.025C193.9 189.358 193.274 189.818 192.729 190.403C192.192 190.98 191.77 191.651 191.461 192.415C191.16 193.171 191.01 193.98 191.01 194.841C191.01 195.711 191.16 196.528 191.461 197.292C191.77 198.048 192.192 198.719 192.729 199.304C193.274 199.881 193.9 200.337 194.607 200.67C195.314 200.995 196.074 201.158 196.887 201.158ZM219.665 186.306V188.842H214.226V203.377H211.69V188.842H206.264V186.306H219.665ZM227.972 203.377V186.306H238.031V188.842H230.508V192.963H236.861V195.5H230.508V203.377H227.972ZM247.401 203.694C246.246 203.694 245.161 203.466 244.145 203.011C243.129 202.548 242.234 201.91 241.462 201.097C240.69 200.284 240.084 199.345 239.645 198.28C239.206 197.207 238.987 196.061 238.987 194.841C238.987 193.622 239.206 192.48 239.645 191.415C240.084 190.342 240.69 189.399 241.462 188.586C242.234 187.773 243.129 187.139 244.145 186.684C245.161 186.22 246.246 185.989 247.401 185.989C248.563 185.989 249.652 186.22 250.668 186.684C251.685 187.139 252.579 187.773 253.351 188.586C254.123 189.399 254.725 190.342 255.156 191.415C255.595 192.48 255.814 193.622 255.814 194.841C255.814 196.061 255.595 197.207 255.156 198.28C254.725 199.345 254.123 200.284 253.351 201.097C252.579 201.91 251.685 202.548 250.668 203.011C249.652 203.466 248.563 203.694 247.401 203.694ZM247.401 201.158C248.213 201.158 248.974 200.991 249.681 200.658C250.388 200.324 251.01 199.869 251.546 199.292C252.091 198.707 252.514 198.036 252.815 197.28C253.123 196.516 253.278 195.703 253.278 194.841C253.278 193.98 253.123 193.167 252.815 192.403C252.514 191.638 252.091 190.968 251.546 190.391C251.01 189.805 250.388 189.35 249.681 189.025C248.974 188.692 248.213 188.525 247.401 188.525C246.588 188.525 245.828 188.692 245.12 189.025C244.413 189.358 243.787 189.818 243.242 190.403C242.706 190.98 242.283 191.651 241.974 192.415C241.674 193.171 241.523 193.98 241.523 194.841C241.523 195.711 241.674 196.528 241.974 197.292C242.283 198.048 242.706 198.719 243.242 199.304C243.787 199.881 244.413 200.337 245.12 200.67C245.828 200.995 246.588 201.158 247.401 201.158ZM264.83 203.694C263.464 203.694 262.274 203.361 261.257 202.694C260.249 202.028 259.465 201.133 258.904 200.011C258.351 198.882 258.075 197.63 258.075 196.256V186.306H260.611V196.256C260.611 197.15 260.774 197.971 261.099 198.719C261.432 199.459 261.912 200.052 262.538 200.499C263.172 200.938 263.936 201.158 264.83 201.158C265.749 201.158 266.521 200.938 267.147 200.499C267.773 200.052 268.244 199.459 268.561 198.719C268.887 197.971 269.049 197.15 269.049 196.256V186.306H271.586V196.256C271.586 197.288 271.427 198.256 271.11 199.158C270.793 200.052 270.338 200.841 269.744 201.524C269.151 202.206 268.44 202.739 267.61 203.121C266.781 203.503 265.854 203.694 264.83 203.694ZM274.293 203.377V186.306H277.037L284.878 198.792V186.306H287.414V203.377H284.67L276.83 190.891V203.377H274.293ZM290.345 203.377V186.306H295.991C297.17 186.306 298.275 186.529 299.308 186.976C300.34 187.415 301.247 188.029 302.027 188.818C302.807 189.598 303.417 190.504 303.856 191.537C304.303 192.561 304.527 193.663 304.527 194.841C304.527 196.02 304.303 197.126 303.856 198.158C303.417 199.182 302.807 200.089 302.027 200.877C301.247 201.658 300.34 202.271 299.308 202.718C298.275 203.157 297.17 203.377 295.991 203.377H290.345ZM292.882 200.841H295.991C296.82 200.841 297.593 200.686 298.308 200.377C299.031 200.068 299.67 199.638 300.222 199.085C300.783 198.532 301.218 197.894 301.527 197.17C301.836 196.447 301.99 195.671 301.99 194.841C301.99 194.012 301.836 193.236 301.527 192.512C301.218 191.789 300.783 191.151 300.222 190.598C299.67 190.045 299.031 189.614 298.308 189.305C297.593 188.996 296.82 188.842 295.991 188.842H292.882V200.841Z" fill="#1C1C1C" fill-opacity="0.62"/>
<path d="M4.01575 122.744C4.01575 122.744 1.06075 120.917 0.31175 123.35C-0.43725 125.784 -0.43725 129.34 0.31175 129.621C1.06075 129.902 5.36575 129.621 5.36575 129.621C5.36575 129.621 6.87675 124.196 4.01575 122.744Z" fill="#E02828"/>
<path d="M77.1807 124.184C77.1807 124.184 70.5367 119.505 68.9297 127.006C68.9297 127.006 70.4857 131.175 71.2777 138.796C74.0477 139.361 76.7747 140.017 79.4407 140.746C79.4397 133.691 78.8877 127.243 77.1807 124.184Z" fill="#D67C22"/>
<path d="M81.6793 170.303L77.6073 168.507C77.6073 168.507 79.4403 153.617 79.4383 140.745C76.7723 140.016 74.0453 139.36 71.2753 138.795C71.9673 145.454 72.0763 154.747 70.0523 166.207C70.0523 166.207 67.4403 173.22 70.3273 176.138C73.2133 179.055 75.7853 178.045 79.4283 179.504C83.0723 180.963 89.1802 181.299 91.6442 177.148C94.1102 172.995 89.0733 165.926 81.6793 170.303Z" fill="#E28E33"/>
<path d="M36.8916 119.453C36.8916 119.453 30.2466 114.54 28.6406 122.416C28.6406 122.416 30.6646 128.12 31.2696 138.401C33.8556 137.812 36.4876 137.363 39.1516 137.05C39.1606 129.563 38.6146 122.695 36.8916 119.453Z" fill="#D67C22"/>
<path d="M41.3887 167.876L37.3167 165.991C37.3167 165.991 39.1307 150.517 39.1487 137.051C36.4847 137.364 33.8527 137.813 31.2667 138.402C31.6547 145.004 31.4597 153.487 29.7627 163.577C29.7627 163.577 27.1517 170.94 30.0377 174.004C32.9237 177.068 35.4957 176.007 39.1397 177.538C42.7837 179.07 48.8918 179.423 51.3558 175.064C53.8188 170.704 48.7827 163.281 41.3887 167.876Z" fill="#E28E33"/>
<path d="M66.289 45.0191C69.097 39.9651 70.22 33.7891 67.974 28.1741C67.808 27.8091 67.623 27.4741 67.424 27.1621C56.102 31.0821 39.323 41.5351 31 69.3701C45.158 65.7211 58.04 58.4251 66.289 45.0191Z" fill="#E89442"/>
<path d="M83.4062 20.4121C83.4152 21.0911 83.5562 21.6901 83.5562 21.6901C83.5562 21.6901 83.5143 21.2011 83.4062 20.4121Z" fill="#E28E33"/>
<path d="M88.1144 29.0681C88.1144 29.0681 94.6514 29.6011 93.8474 26.8241C93.0434 24.0471 90.4714 24.8041 90.4714 24.8041C90.4714 24.8041 97.2224 19.4181 93.2034 17.0611C89.1854 14.7051 86.6134 22.0261 86.6134 22.0261C86.6134 22.0261 86.9344 18.6601 84.8454 18.4911C83.6364 18.3931 83.3974 19.4781 83.4094 20.4111C83.5174 21.2001 83.5594 21.6891 83.5594 21.6891C83.5594 21.6891 83.4184 21.0901 83.4094 20.4111C82.9424 16.9871 81.2404 7.92311 76.4064 8.81311C70.4594 9.90711 79.2194 22.7831 79.2194 22.7831C79.2194 22.7831 77.4514 21.3521 76.8084 22.8671C76.1654 24.3821 78.8984 24.8031 78.8984 24.8031C78.8984 24.8031 74.1134 24.8441 67.4224 27.1601C67.6224 27.4721 67.8064 27.8081 67.9724 28.1721C70.2184 33.7871 69.0954 39.9631 66.2874 45.0171C58.0384 58.4231 45.1564 65.7191 30.9974 69.3681C29.5324 74.2671 28.3254 79.6971 27.4604 85.7331C27.4604 85.7331 23.2524 120.088 24.2454 121.753C26.2844 125.168 49.2614 129.396 74.9224 128.449C77.3134 128.361 79.4154 126.763 80.2304 124.408L92.4824 92.6851C96.5604 82.1251 98.8544 70.8851 99.0594 59.4961C99.2804 47.2991 97.2224 33.8931 88.1144 29.0681Z" fill="#E28E33"/>
<path d="M44.8346 71.0779C43.8286 69.0839 41.5506 67.3949 36.5306 68.1309C29.4396 69.1709 23.6726 78.8959 20.6016 85.2989C30.0326 82.3949 38.7216 77.8809 44.8346 71.0779Z" fill="#E28E33"/>
<path d="M23.0508 91.6241C26.9888 84.7331 34.8098 79.5691 43.4878 79.5341C44.1918 78.9031 44.9538 77.8221 45.4908 75.9471C45.4908 75.9471 45.9678 73.3211 44.8368 71.0781C38.7238 77.8821 30.0338 82.3961 20.6038 85.2991C19.0568 88.5241 18.1918 90.9101 18.1918 90.9101C18.1918 90.9101 14.3528 90.4631 13.4998 95.3761C13.4998 95.3761 13.0728 97.8331 14.5658 98.7261C14.5658 98.7261 -0.150199 120.165 3.0488 128.651C3.0488 128.651 2.4798 131.256 4.9678 132.15C4.9678 132.15 6.6028 135.723 9.0198 134.457C9.0198 134.457 7.0298 139.37 9.5888 140.338C12.1488 141.306 14.9918 140.934 15.9868 136.765C16.2398 135.706 16.7558 132.092 17.7038 127.155C15.4538 115.229 16.3098 102.727 23.0508 91.6241Z" fill="#E28E33"/>
<path d="M23.0475 91.6232C16.3065 102.726 15.4505 115.228 17.7015 127.153C20.4865 112.659 27.0125 86.7422 41.6485 80.4122C41.6485 80.4122 42.5105 80.4062 43.4845 79.5332C34.8065 79.5682 26.9855 84.7322 23.0475 91.6232Z" fill="#D67C22"/>
<path d="M30.4766 71.1458C30.4766 71.1458 39.3896 64.2188 44.8366 71.0778C44.8366 71.0778 41.2006 66.3198 30.4766 71.1458Z" fill="#D67C22"/>
<path d="M76.4062 8.81453C76.4062 8.81453 82.0103 6.46053 83.4843 21.2825C83.4843 21.2825 82.5562 18.1455 84.8452 18.4925C87.1342 18.8395 86.6133 22.0275 86.6133 22.0275C86.6133 22.0275 88.1973 15.2255 92.7193 16.8215C97.2413 18.4185 91.9133 23.7505 90.4713 24.8045C90.4713 24.8045 93.5892 24.2555 93.9062 27.1615C93.9062 27.1615 92.1533 24.3135 89.6613 25.5765C89.6613 25.5765 95.3032 18.7645 92.1882 18.1365C89.0732 17.5085 86.4673 23.4715 86.4673 23.4715C86.4673 23.4715 86.0193 19.3815 84.6783 19.9625C83.3363 20.5435 83.5592 23.3665 83.5592 23.3665C83.5592 23.3665 80.9443 9.35353 76.4062 8.81453Z" fill="#EF9C56"/>
<path d="M21.6354 128.591C18.9324 125.406 14.9654 125.692 14.9654 125.692C13.4204 129.999 13.7014 133.598 13.7014 133.598C13.7014 133.598 -1.59963 162.235 6.26137 158.024C12.2554 154.813 19.0334 157.07 21.9164 158.323C22.3664 158.519 22.8504 158.387 23.1534 158.067C17.9714 148.823 16.4864 137.787 21.6354 128.591Z" fill="#E02828"/>
<path d="M24.0874 136.545C24.0404 132.684 22.9974 130.197 21.6334 128.59C16.4844 137.786 17.9694 148.822 23.1514 158.066C23.3174 157.89 23.4324 157.658 23.4504 157.388C23.6894 153.929 24.1954 145.403 24.0874 136.545Z" fill="#ED3E3E"/>
<path d="M71.6764 59.0343C70.9024 60.8813 70.8224 62.6173 71.4964 62.9123C72.1714 63.2073 73.3464 61.9503 74.1204 60.1033C74.8944 58.2563 74.9744 56.5193 74.2994 56.2243C73.6254 55.9303 72.4504 57.1873 71.6764 59.0343Z" fill="#1C1C1C"/>
<path d="M87.0983 62.7542C86.4663 64.6542 86.5183 66.3922 87.2133 66.6352C87.9093 66.8792 88.9843 65.5362 89.6173 63.6362C90.2493 61.7362 90.1983 59.9982 89.5023 59.7552C88.8063 59.5112 87.7303 60.8542 87.0983 62.7542Z" fill="#1C1C1C"/>
<path d="M83.6612 51.5223C83.0292 53.4223 83.0802 55.1603 83.7762 55.4033C84.4722 55.6473 85.5472 54.3043 86.1802 52.4043C86.8122 50.5043 86.7612 48.7663 86.0652 48.5223C85.3692 48.2803 84.2932 49.6233 83.6612 51.5223Z" fill="#1C1C1C"/>
<path d="M78.5631 78.8201C76.7971 77.2341 74.4711 76.3821 72.1051 76.5631C72.0681 76.5661 72.0301 76.5691 71.9931 76.5721C68.2481 76.8791 67.0981 71.1841 72.0671 70.0111C77.0371 68.8381 82.8321 71.5281 84.2981 75.5461C85.5821 79.0611 81.9981 81.9071 78.5631 78.8201Z" fill="#1C1C1C"/>
<mask id="mask0_3374_9529" style="mask-type:luminance" maskUnits="userSpaceOnUse" x="68" y="69" width="17" height="12">
<path d="M78.5631 78.8201C76.7971 77.2341 74.4711 76.3821 72.1051 76.5631C72.0681 76.5661 72.0301 76.5691 71.9931 76.5721C68.2481 76.8791 67.0981 71.1841 72.0671 70.0111C77.0371 68.8381 82.8321 71.5281 84.2981 75.5461C85.5821 79.0611 81.9981 81.9071 78.5631 78.8201Z" fill="white"/>
</mask>
<g mask="url(#mask0_3374_9529)">
<path d="M82.1754 80.2745C81.5084 81.9845 78.2354 82.3025 74.8654 80.9865C71.4954 79.6705 69.3034 77.2185 69.9714 75.5095C70.6384 73.8005 73.9114 73.4815 77.2824 74.7975C80.6514 76.1135 82.8424 78.5655 82.1754 80.2745Z" fill="#D04642"/>
</g>
<path d="M102.819 91.0961C106.734 74.7151 95.7379 67.9551 95.7379 67.9551L94.5509 71.3781L89.2829 86.5771C87.4399 97.4171 80.9159 91.7381 80.9159 91.7381C80.3829 90.0631 79.7429 91.7381 79.7429 91.7381C79.7429 91.7381 79.7429 85.1501 79.7429 80.8511C79.7429 76.5521 78.6769 74.7651 76.6509 75.8821C74.6249 76.9991 75.2649 85.8201 75.2649 85.8201C73.8249 83.6431 72.6519 85.8761 72.6519 85.8761C72.6519 85.8761 72.2259 84.9271 71.2129 85.0391C70.1999 85.1511 70.1469 86.2681 70.1469 86.2681C69.8269 85.7091 68.4409 83.9231 67.1609 86.2681C65.8809 88.6131 69.3999 101.342 75.1689 105.139C76.3119 105.891 77.9279 106.447 79.8119 106.731C89.3139 104.593 97.8409 99.4991 102.819 91.0961Z" fill="#E28E33"/>
<path d="M79.8125 106.729C85.7895 107.63 94.4895 105.773 99.5455 98.5598C100.946 96.5628 102.073 94.1648 102.777 91.2908C102.794 91.2238 102.805 91.1608 102.82 91.0938C97.8425 99.4978 89.3155 104.592 79.8125 106.729Z" fill="#D67C22"/>
<path d="M90.6437 93.8696C90.6437 93.8696 84.9577 95.7716 79.7407 91.7376C79.7407 91.7376 81.6257 75.4956 77.6067 75.5636C77.6067 75.5636 74.1477 74.7936 75.2247 85.1796C75.2247 85.1796 73.6057 84.1416 72.6487 85.8756C72.6487 85.8756 70.9197 83.8846 70.1657 86.0986C70.1657 86.0986 67.7127 83.8556 66.8947 86.6626C66.8947 86.6626 63.7617 103.119 81.4137 106.946C81.4137 106.946 66.7797 103.404 67.3407 87.0496C67.3407 87.0496 67.4807 86.0676 68.5337 86.0146C69.5867 85.9616 70.1827 87.1906 70.1827 87.1906C70.1827 87.1906 70.5337 85.5756 71.3407 85.7696C72.1477 85.9626 72.7097 87.0856 72.7097 87.0856C72.7097 87.0856 72.9907 85.2606 74.2017 85.5596C75.4117 85.8576 75.4477 87.2616 75.4477 87.2616C75.4477 87.2616 74.8167 75.5756 77.4837 75.9966C80.1507 76.4176 79.3437 92.6316 79.3437 92.6316C79.3437 92.6316 85.4497 97.7296 90.6437 93.8696Z" fill="#D67C22"/>
<path d="M98.1318 71.0781C98.1318 71.0781 96.0468 83.2021 91.1328 93.8701C91.1328 93.8701 97.9708 82.9591 98.1318 71.0781Z" fill="#D67C22"/>
<path d="M23.4736 157.818C23.4736 161.34 19.1186 164.197 13.7446 164.197C8.37063 164.197 4.01562 161.34 4.01562 157.818C4.01562 154.295 8.37063 151.439 13.7446 151.439C19.1186 151.44 23.4736 154.295 23.4736 157.818Z" fill="#C91F1F"/>
<path d="M12.0078 158.062V171.265L15.0278 158.502C15.1368 158.039 14.9238 157.558 14.5028 157.337C14.0988 157.126 13.5438 156.942 12.9088 157.024C12.3928 157.091 12.0078 157.541 12.0078 158.062Z" fill="#EAC71B"/>
<path d="M14.6796 169.324C14.6796 170.681 13.5796 171.78 12.2226 171.78C10.8666 171.78 9.76562 170.68 9.76562 169.324C9.76562 167.967 10.8656 166.867 12.2226 166.867C13.5806 166.867 14.6796 167.967 14.6796 169.324Z" fill="#EAC71B"/>
<path d="M320.846 54.0403C318.209 52.0683 315.009 50.4893 311.159 49.8353C303.322 48.5043 297.97 51.1493 294.672 53.9243C303.39 54.7423 312.144 54.8963 320.846 54.0403Z" fill="#E89442"/>
<path d="M320.847 54.0408C312.145 54.8978 303.391 54.7438 294.673 53.9258C291.755 56.3818 290.445 58.9408 290.445 58.9408C290.445 58.9408 283.384 63.8178 283.664 65.9548C283.942 68.0918 285.243 67.3488 285.243 67.3488C285.243 69.4388 286.357 69.0208 286.357 69.0208C286.357 69.0208 284.732 77.2418 286.961 77.3348C289.191 77.4278 290.84 70.7038 290.84 70.7038C290.84 70.7038 290.753 72.3758 293.436 71.8708C296.118 71.3658 295.834 65.2578 295.834 65.2578C298.621 57.3618 306.796 58.3368 306.796 58.3368C314.433 59.0038 320.189 65.9018 324.255 73.4828C325.761 69.1368 326.72 64.6148 326.765 60.1108C325.24 58.0238 323.284 55.8638 320.847 54.0408Z" fill="#E28E33"/>
<path d="M331.223 68.4134C331.223 68.4134 329.907 64.4234 326.76 60.1094C326.715 64.6124 325.756 69.1344 324.25 73.4814C329.533 83.3304 331.966 94.3324 331.966 94.3324C333.266 78.3534 331.223 68.4134 331.223 68.4134Z" fill="#D67C22"/>
<path d="M389.762 67.0234C389.762 67.0234 386.604 75.1434 390.505 84.9904C390.505 84.9904 391.773 85.1514 393.503 86.0074C394.373 80.6564 395.73 75.3984 397.509 70.2374C395.278 68.8704 392.715 67.7704 389.762 67.0234Z" fill="#D67C22"/>
<path d="M400.633 72.5176C402.674 83.8186 405.974 95.4506 411.46 105.871C411.885 95.3046 410.374 80.8376 400.633 72.5176Z" fill="#E89442"/>
<path d="M400.636 72.5163C399.674 71.6943 398.636 70.9283 397.506 70.2363C395.727 75.3973 394.37 80.6553 393.5 86.0063C398.227 88.3453 406.41 95.8803 401.649 119.546C401.649 119.546 396.794 123.262 396.795 126.188C396.796 129.114 398.398 129.88 398.398 129.88C398.398 129.88 397.143 132.806 399.652 132.806C402.16 132.806 404.251 133.364 404.947 133.712C405.643 134.06 407.455 133.224 408.43 133.712C409.406 134.199 411.704 134.199 412.541 133.433C413.377 132.667 412.819 122.076 409.893 118.871C409.893 118.871 411.162 113.348 411.462 105.868C405.977 95.4493 402.677 83.8173 400.636 72.5163Z" fill="#E28E33"/>
<path d="M348.056 165.561C348.056 165.561 346.867 163.593 345.723 164.829C345.723 164.829 337.352 159.386 333.372 168.443C329.392 177.5 347.232 177.912 351.624 173.658C356.016 169.403 357.388 169.266 357.388 169.266C357.388 169.266 359.172 166.384 357.388 165.149C356.068 164.235 352.491 150.759 351.724 136.361C349.251 136.625 346.797 136.98 344.369 137.456L348.056 165.561Z" fill="#E28E33"/>
<path d="M352.176 121.372C352.176 121.372 344.079 114.236 341.883 118.49L344.371 137.456C346.8 136.98 349.254 136.625 351.726 136.361C351.458 131.311 351.534 126.147 352.176 121.372Z" fill="#D67C22"/>
<path d="M379.156 161.411C379.156 161.411 380.346 159.444 381.489 160.68C381.489 160.68 389.86 155.237 393.841 164.294C397.82 173.351 379.98 173.763 375.589 169.509C371.197 165.254 369.824 165.117 369.824 165.117C369.824 165.117 368.04 162.235 369.824 161C371.145 160.086 374.721 146.61 375.488 132.211C377.962 132.475 380.415 132.831 382.843 133.306L379.156 161.411Z" fill="#E28E33"/>
<path d="M375.039 117.221C375.039 117.221 383.137 110.085 385.332 114.339L382.844 133.305C380.415 132.829 377.962 132.473 375.489 132.21C375.757 127.16 375.681 121.997 375.039 117.221Z" fill="#D67C22"/>
<path d="M352.695 17.7344C352.805 18.0054 352.911 18.1644 352.911 18.1644C352.911 18.1644 352.837 18.0094 352.695 17.7344Z" fill="#E28E33"/>
<path d="M385.104 56.5473C387.283 57.8883 389.509 59.0873 391.78 60.1653C389.923 46.2073 385.678 32.9493 377.004 25.1473C375.372 23.6803 373.579 22.4133 371.621 21.3633C367.372 33.2593 374.349 50.0943 385.104 56.5473Z" fill="#E89442"/>
<path d="M385.103 56.5471C374.347 50.0931 367.371 33.2591 371.62 21.3631C370.08 20.5361 368.439 19.8401 366.681 19.3071C366.681 19.3071 380.359 6.22412 372.399 0.735118C364.439 -4.75388 359.499 16.7911 359.499 16.7911C359.499 16.7911 357.029 11.3021 354.147 13.4971C351.993 15.1381 352.369 16.9311 352.696 17.7331C352.838 18.0081 352.912 18.1631 352.912 18.1631C352.912 18.1631 352.807 18.0041 352.696 17.7331C351.318 15.0421 343.591 0.730114 336.993 4.71411C329.72 9.10511 347.01 22.1431 347.01 22.1431C347.01 22.1431 342.667 25.2851 338.223 33.3451C331.079 46.2991 323.674 71.9601 333.615 117.712C345.1 120.207 357.246 120.109 369.393 117.41C379.184 115.234 386.827 109.068 392.063 101.077C393.045 90.3661 393.738 74.8761 391.779 60.1651C389.509 59.0871 387.282 57.8881 385.103 56.5471Z" fill="#E28E33"/>
<path d="M369.395 117.41C357.248 120.109 345.102 120.207 333.617 117.712C333.946 119.227 334.294 120.764 334.662 122.324C334.662 122.324 342.622 123.971 363.618 122.324C384.615 120.678 390.379 114.776 390.379 114.776C390.379 114.776 391.307 109.352 392.065 101.076C386.828 109.068 379.186 115.234 369.395 117.41Z" fill="#D67C22"/>
<path d="M358.616 44.2631C358.684 45.9811 359.252 47.3621 359.883 47.3471C360.516 47.3321 360.974 45.9271 360.906 44.2091C360.839 42.4911 360.27 41.1101 359.637 41.1251C359.007 41.1411 358.549 42.5451 358.616 44.2631Z" fill="#1C1C1C"/>
<path d="M349.538 56.2065C349.605 57.9245 350.174 59.3055 350.806 59.2905C351.439 59.2755 351.897 57.8705 351.829 56.1525C351.761 54.4345 351.193 53.0535 350.561 53.0685C349.929 53.0835 349.471 54.4885 349.538 56.2065Z" fill="#1C1C1C"/>
<path d="M369.311 53.0685C368.679 53.0835 368.221 54.4885 368.288 56.2065C368.355 57.9245 368.924 59.3055 369.556 59.2905C370.189 59.2755 370.647 57.8705 370.578 56.1525C370.511 54.4345 369.943 53.0535 369.311 53.0685Z" fill="#1C1C1C"/>
<path d="M352.172 68.2839C352.172 68.2839 359.505 63.2229 369.43 67.1989C369.43 67.1989 360.024 61.4149 352.172 68.2839Z" fill="#BA6315"/>
<path d="M350.68 66.9883C350.68 66.9883 352.957 67.1893 352.797 70.1623C352.797 70.1623 352.419 68.1133 350.68 66.9883Z" fill="#BA6315"/>
<path d="M369.024 69.3693C369.024 69.3693 369.401 67.3203 371.141 66.1953C371.141 66.1953 368.863 66.3953 369.024 69.3693Z" fill="#BA6315"/>
<path d="M357.5 69.3694C357.5 69.3694 360.715 68.0944 364.331 69.3694C364.331 69.3694 360.875 67.0484 357.5 69.3694Z" fill="#BA6315"/>
<path d="M336.992 4.71639C336.992 4.71639 344.024 -0.926624 352.911 18.1654C352.911 18.1654 345.814 4.84039 336.992 4.71639Z" fill="#EF9C56"/>
<path d="M373.918 9.42406C375.772 6.04406 375.237 -1.19395 369.152 -0.0969464C363.068 1.00105 359.497 16.7921 359.497 16.7921C357.017 12.2691 355.289 12.0951 353.424 14.1491C351.559 16.2041 352.91 18.1641 352.91 18.1641C352.882 15.5851 354.807 14.8361 354.807 14.8361C358.555 14.5071 359.93 21.1641 359.93 21.1641C359.93 21.1641 363.908 2.84306 369.271 1.57706C374.635 0.313057 373.918 9.42406 373.918 9.42406Z" fill="#EF9C56"/>
</g>
<defs>
<clipPath id="clip0_3374_9529">
<rect width="413" height="213" fill="white"/>
</clipPath>
</defs>
</svg>
