<svg width="86" height="34" viewBox="0 0 86 34" fill="none" xmlns="http://www.w3.org/2000/svg">
<path d="M1.84572 9.367C3.28963 6.55101 5.50388 4.18379 8.24118 2.52971C10.9785 0.875624 14.1311 -0.000215028 17.3469 3.95988e-08C22.0219 3.95988e-08 25.9493 1.6847 28.952 4.4285L23.9787 9.3041C22.1798 7.6194 19.8935 6.7609 17.3469 6.7609C12.8281 6.7609 9.00306 9.7529 7.64133 13.77C7.29439 14.79 7.09663 15.878 7.09663 17C7.09663 18.122 7.29439 19.21 7.64133 20.23C9.0048 24.2488 12.8281 27.2391 17.3469 27.2391C19.6801 27.2391 21.6663 26.6356 23.2206 25.6156C24.1217 25.0342 24.8931 24.2798 25.4882 23.3979C26.0833 22.5161 26.4898 21.5252 26.6831 20.485H17.3469V13.9094H33.6843C33.889 15.0212 34 16.1806 34 17.3859C34 22.5641 32.1092 26.9229 28.8271 29.8809C25.958 32.4785 22.0306 34 17.3469 34C15.0687 34.0009 12.8125 33.5618 10.7075 32.7078C8.60244 31.8538 6.68976 30.6016 5.07877 29.0228C3.46777 27.444 2.19004 25.5696 1.3186 23.5067C0.447159 21.4437 -0.000910474 19.2327 1.38899e-06 17C1.38899e-06 14.2562 0.669593 11.662 1.84572 9.367Z" fill="#2790C3"/>
<path d="M56.716 14.396C56.716 15.2173 56.518 15.9873 56.122 16.706C55.7407 17.4247 55.132 18.004 54.296 18.444C53.4747 18.884 52.4333 19.104 51.172 19.104H48.598V25H45.518V9.644H51.172C52.36 9.644 53.372 9.84933 54.208 10.26C55.044 10.6707 55.6673 11.2353 56.078 11.954C56.5033 12.6727 56.716 13.4867 56.716 14.396ZM51.04 16.618C51.8907 16.618 52.5213 16.4273 52.932 16.046C53.3427 15.65 53.548 15.1 53.548 14.396C53.548 12.9 52.712 12.152 51.04 12.152H48.598V16.618H51.04ZM58.1108 18.862C58.1108 17.63 58.3528 16.5373 58.8368 15.584C59.3354 14.6307 60.0028 13.8973 60.8388 13.384C61.6894 12.8707 62.6354 12.614 63.6768 12.614C64.5861 12.614 65.3781 12.7973 66.0528 13.164C66.7421 13.5307 67.2921 13.9927 67.7028 14.55V12.812H70.8048V25H67.7028V23.218C67.3068 23.79 66.7568 24.2667 66.0528 24.648C65.3634 25.0147 64.5641 25.198 63.6548 25.198C62.6281 25.198 61.6894 24.934 60.8388 24.406C60.0028 23.878 59.3354 23.1373 58.8368 22.184C58.3528 21.216 58.1108 20.1087 58.1108 18.862ZM67.7028 18.906C67.7028 18.158 67.5561 17.52 67.2628 16.992C66.9694 16.4493 66.5734 16.0387 66.0748 15.76C65.5761 15.4667 65.0408 15.32 64.4688 15.32C63.8968 15.32 63.3688 15.4593 62.8848 15.738C62.4008 16.0167 62.0048 16.4273 61.6968 16.97C61.4034 17.498 61.2568 18.1287 61.2568 18.862C61.2568 19.5953 61.4034 20.2407 61.6968 20.798C62.0048 21.3407 62.4008 21.7587 62.8848 22.052C63.3834 22.3453 63.9114 22.492 64.4688 22.492C65.0408 22.492 65.5761 22.3527 66.0748 22.074C66.5734 21.7807 66.9694 21.37 67.2628 20.842C67.5561 20.2993 67.7028 19.654 67.7028 18.906ZM85.4729 12.812L77.9269 30.764H74.6489L77.2889 24.692L72.4049 12.812H75.8589L79.0049 21.326L82.1949 12.812H85.4729Z" fill="#27346A"/>
</svg>
