<svg width="122" height="34" viewBox="0 0 122 34" fill="none" xmlns="http://www.w3.org/2000/svg">
<g clip-path="url(#clip0_2679_10283)">
<path d="M22.9047 2.64641C21.4351 0.858373 18.7785 0.0917969 15.38 0.0917969H5.51655C5.18028 0.0917415 4.85503 0.219771 4.5993 0.452856C4.34358 0.68594 4.17415 1.00878 4.12152 1.36331L0.0145639 29.1675C-0.0670689 29.7158 0.330654 30.2123 0.851247 30.2123H6.94059L8.46989 19.858L8.42243 20.1822C8.53138 19.4503 9.11778 18.9105 9.81219 18.9105H12.7058C18.3904 18.9105 22.8415 16.4458 24.1417 9.31604C24.1803 9.10517 24.2137 8.89994 24.2426 8.69943C24.0785 8.60666 24.0785 8.60666 24.2426 8.69943C24.6298 6.0642 24.24 4.27042 22.9047 2.64641Z" fill="#27346A"/>
<path d="M10.7999 7.75013C10.9663 7.66538 11.1484 7.62152 11.3328 7.62178H19.0656C19.9813 7.62178 20.8354 7.68539 21.6158 7.81948C21.8342 7.85668 22.0515 7.90106 22.2673 7.95255C22.5732 8.02462 22.8756 8.1128 23.1733 8.21678C23.557 8.35357 23.9143 8.51288 24.2427 8.69943C24.6298 6.06319 24.24 4.27042 22.9047 2.64641C21.4342 0.858373 18.7785 0.0917969 15.38 0.0917969H5.51571C4.8212 0.0917969 4.23036 0.631519 4.12152 1.36331L0.0145644 29.1665C-0.0670684 29.7157 0.330654 30.2115 0.850404 30.2115H6.94059L10.1134 8.7341C10.1446 8.52301 10.2234 8.32316 10.343 8.15176C10.4626 7.98036 10.6194 7.84253 10.7999 7.75013Z" fill="#27346A"/>
<path d="M24.1427 9.31583C22.8425 16.4446 18.3915 18.9103 12.7068 18.9103H9.81233C9.11793 18.9103 8.53142 19.4501 8.42352 20.182L6.52097 33.0564C6.44988 33.5362 6.79751 33.971 7.25229 33.971H12.3855C12.6795 33.9709 12.9639 33.8589 13.1874 33.655C13.411 33.4511 13.559 33.1687 13.605 32.8587L13.655 32.5795L14.6224 26.0344L14.6848 25.6726C14.7307 25.3626 14.8788 25.0803 15.1023 24.8764C15.3258 24.6725 15.6102 24.5604 15.9042 24.5603H16.6724C21.645 24.5603 25.5386 22.4039 26.6764 16.1673C27.1513 13.561 26.9055 11.385 25.6492 9.85657C25.2681 9.39363 24.7949 9.0113 24.2436 8.69922C24.2138 8.90074 24.1814 9.10497 24.1427 9.31583Z" fill="#2790C3"/>
<path d="M22.8805 8.11972C22.6777 8.05654 22.4731 8.00059 22.2669 7.95198C22.0509 7.9013 21.8337 7.85723 21.6154 7.8198C20.8341 7.68482 19.9806 7.6211 19.0641 7.6211H11.3323C11.1478 7.62077 10.9656 7.66499 10.7994 7.75045C10.6186 7.84253 10.4616 7.98026 10.342 8.15172C10.2223 8.32318 10.1436 8.52319 10.1127 8.73443L8.46934 19.8574L8.42188 20.1816C8.52998 19.4497 9.11639 18.9099 9.8109 18.9099H12.7054C18.3899 18.9099 22.8409 16.4452 24.1411 9.31547C24.1799 9.1046 24.2123 8.90026 24.2422 8.69885C23.913 8.51346 23.5565 8.35288 23.1727 8.21711C23.0759 8.18283 22.9785 8.15037 22.8806 8.11972" fill="#1F264F"/>
</g>
<path d="M51.716 13.896C51.716 14.7173 51.518 15.4873 51.122 16.206C50.7407 16.9247 50.132 17.504 49.296 17.944C48.4747 18.384 47.4333 18.604 46.172 18.604H43.598V24.5H40.518V9.144H46.172C47.36 9.144 48.372 9.34933 49.208 9.76C50.044 10.1707 50.6673 10.7353 51.078 11.454C51.5033 12.1727 51.716 12.9867 51.716 13.896ZM46.04 16.118C46.8907 16.118 47.5213 15.9273 47.932 15.546C48.3427 15.15 48.548 14.6 48.548 13.896C48.548 12.4 47.712 11.652 46.04 11.652H43.598V16.118H46.04ZM53.1108 18.362C53.1108 17.13 53.3528 16.0373 53.8368 15.084C54.3354 14.1307 55.0028 13.3973 55.8388 12.884C56.6894 12.3707 57.6354 12.114 58.6768 12.114C59.5861 12.114 60.3781 12.2973 61.0528 12.664C61.7421 13.0307 62.2921 13.4927 62.7028 14.05V12.312H65.8048V24.5H62.7028V22.718C62.3068 23.29 61.7568 23.7667 61.0528 24.148C60.3634 24.5147 59.5641 24.698 58.6548 24.698C57.6281 24.698 56.6894 24.434 55.8388 23.906C55.0028 23.378 54.3354 22.6373 53.8368 21.684C53.3528 20.716 53.1108 19.6087 53.1108 18.362ZM62.7028 18.406C62.7028 17.658 62.5561 17.02 62.2628 16.492C61.9694 15.9493 61.5734 15.5387 61.0748 15.26C60.5761 14.9667 60.0408 14.82 59.4688 14.82C58.8968 14.82 58.3688 14.9593 57.8848 15.238C57.4008 15.5167 57.0048 15.9273 56.6968 16.47C56.4034 16.998 56.2568 17.6287 56.2568 18.362C56.2568 19.0953 56.4034 19.7407 56.6968 20.298C57.0048 20.8407 57.4008 21.2587 57.8848 21.552C58.3834 21.8453 58.9114 21.992 59.4688 21.992C60.0408 21.992 60.5761 21.8527 61.0748 21.574C61.5734 21.2807 61.9694 20.87 62.2628 20.342C62.5561 19.7993 62.7028 19.154 62.7028 18.406ZM80.4729 12.312L72.9269 30.264H69.6489L72.2889 24.192L67.4049 12.312H70.8589L74.0049 20.826L77.1949 12.312H80.4729Z" fill="#27346A"/>
<path d="M93.3312 13.896C93.3312 14.7173 93.1332 15.4873 92.7372 16.206C92.3559 16.9247 91.7472 17.504 90.9112 17.944C90.0899 18.384 89.0486 18.604 87.7872 18.604H85.2132V24.5H82.1332V9.144H87.7872C88.9752 9.144 89.9872 9.34933 90.8232 9.76C91.6592 10.1707 92.2826 10.7353 92.6932 11.454C93.1186 12.1727 93.3312 12.9867 93.3312 13.896ZM87.6552 16.118C88.5059 16.118 89.1366 15.9273 89.5472 15.546C89.9579 15.15 90.1632 14.6 90.1632 13.896C90.1632 12.4 89.3272 11.652 87.6552 11.652H85.2132V16.118H87.6552ZM94.726 18.362C94.726 17.13 94.968 16.0373 95.452 15.084C95.9507 14.1307 96.618 13.3973 97.454 12.884C98.3047 12.3707 99.2507 12.114 100.292 12.114C101.201 12.114 101.993 12.2973 102.668 12.664C103.357 13.0307 103.907 13.4927 104.318 14.05V12.312H107.42V24.5H104.318V22.718C103.922 23.29 103.372 23.7667 102.668 24.148C101.979 24.5147 101.179 24.698 100.27 24.698C99.2433 24.698 98.3047 24.434 97.454 23.906C96.618 23.378 95.9507 22.6373 95.452 21.684C94.968 20.716 94.726 19.6087 94.726 18.362ZM104.318 18.406C104.318 17.658 104.171 17.02 103.878 16.492C103.585 15.9493 103.189 15.5387 102.69 15.26C102.191 14.9667 101.656 14.82 101.084 14.82C100.512 14.82 99.984 14.9593 99.5 15.238C99.016 15.5167 98.62 15.9273 98.312 16.47C98.0187 16.998 97.872 17.6287 97.872 18.362C97.872 19.0953 98.0187 19.7407 98.312 20.298C98.62 20.8407 99.016 21.2587 99.5 21.552C99.9987 21.8453 100.527 21.992 101.084 21.992C101.656 21.992 102.191 21.8527 102.69 21.574C103.189 21.2807 103.585 20.87 103.878 20.342C104.171 19.7993 104.318 19.154 104.318 18.406ZM113.508 8.22V24.5H110.428V8.22H113.508ZM119.631 8.22V24.5H116.551V8.22H119.631Z" fill="#2790C3"/>
<defs>
<clipPath id="clip0_2679_10283">
<rect width="27" height="34" fill="white"/>
</clipPath>
</defs>
</svg>
