<svg width="98" height="34" viewBox="0 0 98 34" fill="none" xmlns="http://www.w3.org/2000/svg">
<path d="M90.7398 33.5093L89.8211 28.5802H79.5556L77.9223 33.4742L69.6943 33.4917C74.9836 19.8538 78.9091 9.75163 81.4707 3.18531C82.1403 1.46778 83.3286 0.591497 85.0803 0.604641C86.4197 0.616325 88.6056 0.617783 91.6382 0.60902L98 33.4961L90.7398 33.5093ZM81.8627 21.8284H88.4818L86.0113 9.47268L81.8627 21.8284ZM28.8365 0.600258L37.1093 0.60902L24.3203 33.5137L15.9454 33.5049C13.8394 24.8135 11.7596 16.1148 9.70608 7.40902C9.29775 5.67397 8.48925 4.46031 6.9335 3.88634C5.54244 3.37517 3.23128 2.58505 0 1.51598V0.60902H13.2178C15.5044 0.60902 16.8397 1.79639 17.2684 4.23248C17.7013 6.6744 18.7901 12.8873 20.5351 22.8711L28.8365 0.600258ZM48.4773 0.60902L41.9399 33.5093L34.0632 33.4961L40.5883 0.600258L48.4773 0.60902ZM64.4432 0C66.7992 0 69.7678 0.788659 71.4747 1.51598L70.0945 8.33351C68.551 7.66753 66.0112 6.76933 63.8756 6.8C60.7723 6.85696 58.8531 8.25464 58.8531 9.59536C58.8531 11.7773 62.1851 12.8771 65.6151 15.2606C69.5269 17.9771 70.0455 20.4175 69.9965 23.0727C69.9434 28.5714 65.6151 34 56.4848 34C52.3198 33.9343 50.8171 33.5619 47.4198 32.2649L48.8571 25.1495C52.3157 26.7005 53.7816 27.1956 56.7379 27.1956C59.4452 27.1956 61.7686 26.0214 61.789 23.9753C61.8053 22.5206 60.9723 21.7977 57.9343 20.0013C54.8963 18.2049 50.6333 15.7119 50.6905 10.7039C50.7599 4.29819 56.4153 0 64.4432 0Z" fill="#89BEFF"/>
</svg>
